<?xml version="1.0" encoding="UTF-8" standalone="no"?>
<svg
   xmlns="http://www.w3.org/2000/svg"
   width="774.04419"
   height="569.65088"
   viewBox="0 0 774.04419 569.65088">
  <path
     d="m 541.23752,336.50016 0.24,-1.01 -0.33,-0.6 0.46,-0.16 0.14,-1.58 0.43,-0.63 2.21,-0.57 1.85,0.31 0.19,-0.4 2.41,1.14 0.15,0.8 0.83,0.7 0.42,0.98 -0.27,0.8 0.8,0.25 0.26,1.68 0.75,1.08 0.58,-0.06 0.17,-1.13 1.14,-0.88 0.57,0.26 0.8,1.29 1.21,0.4 1.19,-0.54 0.36,-0.64 1.47,0.34 0.11,-1.97 1.16,0.04 0.07,-0.4 0.57,-0.06 1.84,0.42 0.2,0.57 -0.42,0.83 1.18,0.14 -0.46,0.98 0.53,0.51 -0.14,0.91 0.45,0.1 2.54,-0.78 0.45,-1.34 -0.15,-1.28 0.5,-0.4 -0.03,-0.64 0.74,-0.6 0.9,-0.03 1.17,0.52 1.07,-0.68 -0.66,-0.54 0.19,-0.48 0.47,-0.02 -0.12,-0.79 0.36,-0.01 0.88,-1.58 -0.03,-1.26 0.73,-0.48 0.34,0.32 2.1,-0.21 0.42,-0.69 0.65,-0.24 0.81,-0.1 0.49,0.44 0,0 -0.89,0.61 -0.66,3.07 0.8,1.09 0.9,0.64 0.53,-0.35 1.65,0.62 0.08,0.34 -0.48,0.44 2.45,1.75 0.1,0.58 0.85,-0.06 0.91,0.51 -0.02,0.39 2.87,0.65 3.35,1.96 0.79,3.08 4.37,9.67 -0.8,-0.22 0.04,0.97 0.46,0.24 0.05,0.79 0.63,-0.36 -0.01,1.25 0.36,-0.03 -0.11,0.59 0.27,0.4 0.23,-0.34 0.55,1.09 0.4,1.52 -0.37,0.31 0.91,0.35 0.29,2.11 -0.73,1.66 0.6,2.23 1.26,0.59 -0.12,0.66 1.01,0.14 3.77,1.86 0.59,2.19 -0.54,0.69 0.73,0.66 -0.01,0.57 3.72,1.38 1.54,1.72 0.99,2.57 -0.73,0.84 -3.05,-0.77 -4.12,-2.2 -2.6,1.46 -0.16,0.97 2.14,1.77 0.91,1.42 0,0 -2.2,0.95 -0.03,0.74 -0.56,0.21 0.5,1.39 -0.83,-0.05 -0.25,0.3 0.17,1.53 -0.32,0.32 -2.15,0.12 -0.23,0.33 0.47,0.35 -0.01,1.08 0,0 -0.71,0.41 -0.23,-0.35 -1.03,0.62 -0.48,-0.11 -0.23,0.28 0.28,0.78 -0.73,0.63 -0.83,-0.02 -0.94,1.35 -0.69,-0.76 -0.29,-1.56 0,0 -0.2,0.39 0,0 -0.69,0.13 0.11,-0.96 -1.19,0.36 -1.55,-0.09 -2.01,-1.32 -1.05,-2.18 -1.45,0.16 -0.19,-0.27 -1.42,0.23 -0.45,0.41 0,0 -3.12,-0.62 0.18,-0.32 -0.52,-0.11 0.27,-0.84 -0.36,-0.5 -0.18,0.55 -0.79,0.15 -1.02,-0.29 -0.25,-0.46 -1.14,1.02 -3.8,0.05 -0.36,-0.69 -0.72,-0.37 0.56,-0.92 0.82,-0.09 0.75,-0.83 0.22,-1.4 -0.3,-1.48 -0.81,-0.03 -0.33,-0.87 -0.6,0.72 -0.86,-0.14 -0.15,-0.5 0.57,-0.44 -0.19,-0.34 -0.61,-0.51 -1.25,0.32 -0.55,-0.81 0.26,-0.68 -0.5,-0.09 -1.24,-1.25 0.3,-2.17 1.33,-0.63 0.1,-1.05 1.96,-0.36 -0.09,-1.2 0.63,-0.6 -0.33,-0.72 0.12,-1.3 -1.16,-0.05 0.22,-0.55 -0.63,-0.67 0.1,-0.41 1.83,-0.33 0.89,0.39 0.41,-0.33 0.24,0.55 0.82,-0.32 -0.17,0.5 0.57,-0.01 0.57,0.76 0.68,-0.13 0.65,0.94 0.79,-0.6 0.41,-1.58 0.44,0.37 0.2,-0.51 -0.49,-0.98 0.22,-0.77 -0.33,-1.59 -0.97,0.08 -0.79,-1.27 -0.33,0.07 0,-0.81 -1.06,0.32 -1.03,-0.3 -0.16,0.56 -0.4,0.05 0.02,0.9 -0.86,0.11 0.13,1.61 -0.51,0.34 -0.93,-0.39 -0.65,0.34 -1.72,-0.25 -1.03,0.29 -0.04,-0.76 -0.84,-0.11 -0.18,-1.2 -0.5,0.17 -0.16,-1.16 1.01,-0.53 -0.88,-0.49 -0.47,-3.1 -0.42,-0.24 -0.26,0.65 -1.43,0.5 -0.66,-0.58 -0.07,-0.69 -0.56,-0.01 0.61,-1.31 -0.24,-0.53 0.74,-0.4 0.19,-1.52 0.22,-0.28 0.71,0.26 -0.01,-2.1 0.62,-0.68 -0.12,-0.95 0.41,-0.26 -0.93,-0.34 -1.85,0.01 -0.32,0.5 -2.63,0.04 0.34,-2.39 -0.69,-0.03 -0.44,-1.61 -0.57,-0.52 -0.6,0.68 -0.83,-1.2 -1.2,0.55 -0.79,-0.97 -0.56,0.34 -1.47,-0.02 -0.77,-0.44 -0.05,-0.42 -1.29,-0.77 0.38,-0.97 -1.06,-0.62 -0.11,-1.7 -0.66,-0.24 -1.02,0.3 -0.84,-1.12 -2.38,-0.42 0.24,-0.31 -1.23,-0.89 -0.83,-1.29 -0.71,0.14 z"
     fill="#4a90d9"
     stroke="#fff"
     stroke-width="1"
     title="Jiangsu"
     id="CN-32" />
</svg>
